<svg xmlns="http://www.w3.org/2000/svg" xmlns:xlink="http://www.w3.org/1999/xlink" width="113" zoomAndPan="magnify" viewBox="0 0 84.75 37.5" height="50" preserveAspectRatio="xMidYMid meet" version="1.0"><defs><g/></defs><g fill="#ffffff" fill-opacity="0.4"><g transform="translate(7.549512, 20.254309)"><g><path d="M 1.476562 0.0625 C 1.832031 0.0625 2.363281 0.046875 2.625 0 C 2.78125 -0.03125 2.9375 -0.125 2.9375 -0.3125 C 2.90625 -0.949219 3.015625 -1.601562 3.167969 -2.097656 C 3.417969 -2.46875 3.867188 -2.734375 4.628906 -2.765625 C 5.109375 -2.78125 5.761719 -2.78125 6.246094 -2.765625 C 6.992188 -2.75 7.488281 -2.484375 7.722656 -2.097656 C 7.875 -1.554688 7.96875 -0.933594 7.953125 -0.3125 C 7.953125 -0.125 8.09375 -0.03125 8.234375 0 C 8.527344 0.046875 9.121094 0.0625 9.289062 0.0625 C 9.429688 0.0625 10.082031 0.046875 10.300781 0.015625 C 10.578125 -0.015625 10.703125 -0.1875 10.59375 -0.433594 C 9.585938 -4.132812 8.078125 -8.078125 6.789062 -10.609375 C 6.710938 -10.75 6.570312 -10.84375 6.402344 -10.875 C 6.058594 -10.9375 5.6875 -10.9375 5.4375 -10.9375 C 5.1875 -10.9375 4.800781 -10.9375 4.488281 -10.875 C 4.304688 -10.84375 4.179688 -10.75 4.101562 -10.609375 C 2.8125 -8.078125 1.289062 -4.148438 0.28125 -0.449219 C 0.171875 -0.203125 0.3125 -0.046875 0.589844 0 C 0.808594 0.046875 1.179688 0.0625 1.476562 0.0625 Z M 5.09375 -3.976562 C 4.351562 -4.007812 4.039062 -4.320312 4.242188 -4.863281 C 4.425781 -5.792969 4.707031 -6.695312 5.050781 -7.707031 C 5.296875 -8.296875 5.5625 -8.296875 5.808594 -7.707031 C 6.152344 -6.695312 6.460938 -5.777344 6.648438 -4.863281 C 6.835938 -4.335938 6.523438 -4.007812 5.777344 -3.976562 C 5.609375 -3.960938 5.265625 -3.960938 5.09375 -3.976562 Z M 5.09375 -3.976562 "/></g></g></g><g fill="#ffffff" fill-opacity="0.4"><g transform="translate(18.421369, 20.254309)"><g><path d="M 1.554688 0.0625 C 1.707031 0.0625 2.128906 0.046875 2.375 0 C 2.5625 -0.046875 2.734375 -0.1875 2.71875 -0.433594 C 2.65625 -1.679688 2.640625 -2.828125 2.6875 -3.992188 C 2.734375 -5.53125 3.371094 -6.445312 4.195312 -6.445312 C 5.109375 -6.445312 5.71875 -5.578125 5.734375 -4.148438 C 5.75 -3.167969 5.71875 -1.632812 5.65625 -0.433594 C 5.640625 -0.1875 5.824219 -0.046875 6.011719 0 C 6.324219 0.0625 6.789062 0.0625 7.007812 0.0625 C 7.191406 0.0625 7.519531 0.046875 7.769531 0 C 7.984375 -0.046875 8.171875 -0.1875 8.140625 -0.449219 C 8.0625 -1.601562 8.03125 -2.96875 8.03125 -4.023438 C 8.03125 -5.546875 8.714844 -6.445312 9.523438 -6.445312 C 10.441406 -6.445312 11.046875 -5.578125 11.0625 -4.148438 C 11.078125 -3.324219 11.046875 -1.585938 10.96875 -0.433594 C 10.953125 -0.1875 11.140625 -0.046875 11.339844 0 C 11.636719 0.0625 12.101562 0.0625 12.320312 0.0625 C 12.492188 0.0625 12.800781 0.046875 13.066406 0 C 13.265625 -0.046875 13.421875 -0.171875 13.421875 -0.449219 C 13.421875 -2.003906 13.34375 -3.496094 13.296875 -4.644531 C 13.191406 -7.191406 11.898438 -8.574219 10.347656 -8.574219 C 9.289062 -8.574219 8.464844 -8.078125 8.015625 -7.285156 C 7.796875 -6.835938 7.597656 -6.820312 7.394531 -7.300781 C 6.960938 -8.15625 6.152344 -8.574219 5.21875 -8.574219 C 4.351562 -8.574219 3.480469 -8.015625 3.046875 -7.113281 C 2.890625 -6.773438 2.71875 -6.851562 2.71875 -7.207031 C 2.71875 -7.425781 2.796875 -7.707031 2.859375 -8.0625 C 2.890625 -8.28125 2.734375 -8.40625 2.53125 -8.453125 C 2.332031 -8.496094 1.972656 -8.511719 1.707031 -8.511719 C 1.382812 -8.511719 1.132812 -8.496094 0.917969 -8.453125 C 0.714844 -8.421875 0.605469 -8.28125 0.574219 -8.0625 C 0.402344 -5.734375 0.371094 -4.242188 0.371094 -0.449219 C 0.371094 -0.203125 0.527344 -0.046875 0.699219 0 C 0.964844 0.0625 1.382812 0.0625 1.554688 0.0625 Z M 1.554688 0.0625 "/></g></g></g><g fill="#ffffff" fill-opacity="0.4"><g transform="translate(32.197568, 20.254309)"><g><path d="M 2.90625 0.125 C 4.007812 0.125 5.09375 -0.511719 5.578125 -1.539062 C 5.703125 -1.800781 5.933594 -1.738281 5.902344 -1.445312 C 5.871094 -1.117188 5.808594 -0.746094 5.777344 -0.542969 C 5.734375 -0.28125 5.933594 -0.0625 6.199219 -0.015625 C 6.445312 0.046875 6.898438 0.0625 7.144531 0.0625 C 7.441406 0.0625 7.769531 0.046875 7.984375 -0.015625 C 8.25 -0.0625 8.421875 -0.234375 8.421875 -0.496094 C 8.359375 -1.910156 8.25 -4.148438 8.15625 -5.34375 C 7.953125 -7.597656 6.617188 -8.574219 4.242188 -8.574219 C 3.246094 -8.574219 2.285156 -8.4375 1.445312 -8.171875 C 1.257812 -8.09375 1.164062 -7.921875 1.132812 -7.691406 C 1.085938 -7.378906 0.980469 -6.460938 0.964844 -6.136719 C 0.933594 -5.671875 1.335938 -5.5 1.570312 -5.824219 C 2.316406 -6.476562 3.386719 -6.757812 4.320312 -6.757812 C 5.421875 -6.757812 5.824219 -6.402344 5.824219 -6.074219 C 5.824219 -5.515625 5.1875 -5.328125 3.402344 -5.078125 C 1.460938 -4.753906 0.28125 -3.867188 0.28125 -2.316406 C 0.28125 -0.542969 1.335938 0.125 2.90625 0.125 Z M 3.960938 -1.800781 C 3.03125 -1.800781 2.640625 -2.082031 2.640625 -2.78125 C 2.640625 -3.726562 3.699219 -4.367188 4.800781 -4.367188 C 5.53125 -4.367188 5.792969 -4.007812 5.792969 -3.511719 C 5.792969 -2.421875 4.738281 -1.800781 3.960938 -1.800781 Z M 3.960938 -1.800781 "/></g></g></g><g fill="#ffffff" fill-opacity="0.4"><g transform="translate(40.972705, 20.254309)"><g><path d="M 4.289062 0.0625 C 5.40625 0.0625 7.394531 0.046875 8.34375 0.03125 C 8.574219 0.015625 8.746094 -0.171875 8.730469 -0.355469 C 8.699219 -1.011719 8.621094 -2.097656 8.542969 -2.734375 C 8.496094 -3.277344 8.046875 -3.214844 7.828125 -2.828125 C 7.285156 -1.878906 6.445312 -1.601562 5.21875 -1.601562 C 4.007812 -1.601562 3.914062 -1.988281 4.535156 -2.484375 L 7.691406 -6.476562 C 8.125 -6.789062 8.296875 -7.144531 8.296875 -7.519531 C 8.28125 -7.707031 8.28125 -7.890625 8.25 -8.109375 C 8.234375 -8.296875 8.0625 -8.453125 7.84375 -8.453125 C 7.394531 -8.464844 5.484375 -8.511719 4.519531 -8.511719 C 3.464844 -8.511719 2.144531 -8.480469 1.273438 -8.453125 C 1.054688 -8.453125 0.886719 -8.265625 0.855469 -8.015625 C 0.808594 -7.457031 0.746094 -6.679688 0.730469 -6.136719 C 0.699219 -5.65625 1.210938 -5.609375 1.460938 -5.949219 C 1.878906 -6.523438 2.5625 -6.789062 3.574219 -6.789062 C 4.582031 -6.789062 4.910156 -6.460938 4.148438 -5.917969 C 3.105469 -4.597656 2.082031 -3.261719 1.039062 -1.941406 C 0.527344 -1.601562 0.355469 -1.289062 0.3125 -0.886719 C 0.296875 -0.699219 0.296875 -0.542969 0.296875 -0.355469 C 0.296875 -0.15625 0.480469 0.015625 0.699219 0.03125 C 1.226562 0.0625 3.386719 0.0625 4.289062 0.0625 Z M 4.289062 0.0625 "/></g></g></g><g fill="#ffffff" fill-opacity="0.4"><g transform="translate(49.996346, 20.254309)"><g><path d="M 4.628906 0.125 C 7.113281 0.125 8.949219 -1.304688 8.949219 -4.164062 C 8.949219 -6.945312 7.128906 -8.574219 4.628906 -8.574219 C 2.113281 -8.574219 0.28125 -6.945312 0.28125 -4.164062 C 0.28125 -1.304688 2.144531 0.125 4.628906 0.125 Z M 4.628906 -1.707031 C 3.402344 -1.707031 2.515625 -2.609375 2.515625 -4.242188 C 2.515625 -5.792969 3.371094 -6.742188 4.628906 -6.742188 C 5.871094 -6.742188 6.742188 -5.792969 6.742188 -4.242188 C 6.742188 -2.609375 5.839844 -1.707031 4.628906 -1.707031 Z M 4.628906 -1.707031 "/></g></g></g><g fill="#ffffff" fill-opacity="0.4"><g transform="translate(59.221891, 20.254309)"><g><path d="M 1.632812 0.0625 C 1.878906 0.0625 2.316406 0.046875 2.546875 0 C 2.75 -0.03125 2.9375 -0.1875 2.90625 -0.433594 C 2.765625 -1.601562 2.734375 -2.953125 2.71875 -3.851562 C 2.71875 -5.53125 3.574219 -6.601562 4.785156 -6.601562 C 6.042969 -6.601562 6.835938 -5.546875 6.867188 -3.882812 C 6.882812 -3.058594 6.835938 -1.523438 6.726562 -0.433594 C 6.710938 -0.1875 6.898438 -0.046875 7.101562 0 C 7.394531 0.046875 7.84375 0.0625 8.03125 0.0625 C 8.203125 0.0625 8.589844 0.046875 8.839844 0 C 9.058594 -0.046875 9.210938 -0.171875 9.210938 -0.449219 C 9.210938 -2.269531 9.164062 -3.261719 9.105469 -4.457031 C 8.996094 -7.007812 7.628906 -8.574219 5.75 -8.574219 C 4.660156 -8.574219 3.867188 -8.171875 3.136719 -7.175781 C 2.953125 -6.882812 2.796875 -6.914062 2.8125 -7.269531 C 2.828125 -7.472656 2.875 -7.753906 2.96875 -8.03125 C 3.03125 -8.265625 2.859375 -8.421875 2.65625 -8.453125 C 2.363281 -8.496094 2.066406 -8.511719 1.785156 -8.511719 C 1.523438 -8.511719 1.226562 -8.496094 1.011719 -8.453125 C 0.808594 -8.421875 0.699219 -8.28125 0.667969 -8.046875 C 0.433594 -5.734375 0.402344 -4.210938 0.402344 -0.449219 C 0.386719 -0.1875 0.558594 -0.03125 0.746094 0 C 0.996094 0.046875 1.351562 0.0625 1.632812 0.0625 Z M 1.632812 0.0625 "/></g></g></g><g fill="#ffffff" fill-opacity="0.4"><g transform="translate(68.789122, 20.254309)"><g><path d="M 2.90625 0.125 C 4.007812 0.125 5.09375 -0.511719 5.578125 -1.539062 C 5.703125 -1.800781 5.933594 -1.738281 5.902344 -1.445312 C 5.871094 -1.117188 5.808594 -0.746094 5.777344 -0.542969 C 5.734375 -0.28125 5.933594 -0.0625 6.199219 -0.015625 C 6.445312 0.046875 6.898438 0.0625 7.144531 0.0625 C 7.441406 0.0625 7.769531 0.046875 7.984375 -0.015625 C 8.25 -0.0625 8.421875 -0.234375 8.421875 -0.496094 C 8.359375 -1.910156 8.25 -4.148438 8.15625 -5.34375 C 7.953125 -7.597656 6.617188 -8.574219 4.242188 -8.574219 C 3.246094 -8.574219 2.285156 -8.4375 1.445312 -8.171875 C 1.257812 -8.09375 1.164062 -7.921875 1.132812 -7.691406 C 1.085938 -7.378906 0.980469 -6.460938 0.964844 -6.136719 C 0.933594 -5.671875 1.335938 -5.5 1.570312 -5.824219 C 2.316406 -6.476562 3.386719 -6.757812 4.320312 -6.757812 C 5.421875 -6.757812 5.824219 -6.402344 5.824219 -6.074219 C 5.824219 -5.515625 5.1875 -5.328125 3.402344 -5.078125 C 1.460938 -4.753906 0.28125 -3.867188 0.28125 -2.316406 C 0.28125 -0.542969 1.335938 0.125 2.90625 0.125 Z M 3.960938 -1.800781 C 3.03125 -1.800781 2.640625 -2.082031 2.640625 -2.78125 C 2.640625 -3.726562 3.699219 -4.367188 4.800781 -4.367188 C 5.53125 -4.367188 5.792969 -4.007812 5.792969 -3.511719 C 5.792969 -2.421875 4.738281 -1.800781 3.960938 -1.800781 Z M 3.960938 -1.800781 "/></g></g></g><g fill="#ffffff" fill-opacity="1"><g transform="translate(7.233603, 19.938399)"><g><path d="M 1.476562 0.0625 C 1.832031 0.0625 2.363281 0.046875 2.625 0 C 2.78125 -0.03125 2.9375 -0.125 2.9375 -0.3125 C 2.90625 -0.949219 3.015625 -1.601562 3.167969 -2.097656 C 3.417969 -2.46875 3.867188 -2.734375 4.628906 -2.765625 C 5.109375 -2.78125 5.761719 -2.78125 6.246094 -2.765625 C 6.992188 -2.75 7.488281 -2.484375 7.722656 -2.097656 C 7.875 -1.554688 7.96875 -0.933594 7.953125 -0.3125 C 7.953125 -0.125 8.09375 -0.03125 8.234375 0 C 8.527344 0.046875 9.121094 0.0625 9.289062 0.0625 C 9.429688 0.0625 10.082031 0.046875 10.300781 0.015625 C 10.578125 -0.015625 10.703125 -0.1875 10.59375 -0.433594 C 9.585938 -4.132812 8.078125 -8.078125 6.789062 -10.609375 C 6.710938 -10.75 6.570312 -10.84375 6.402344 -10.875 C 6.058594 -10.9375 5.6875 -10.9375 5.4375 -10.9375 C 5.1875 -10.9375 4.800781 -10.9375 4.488281 -10.875 C 4.304688 -10.84375 4.179688 -10.75 4.101562 -10.609375 C 2.8125 -8.078125 1.289062 -4.148438 0.28125 -0.449219 C 0.171875 -0.203125 0.3125 -0.046875 0.589844 0 C 0.808594 0.046875 1.179688 0.0625 1.476562 0.0625 Z M 5.09375 -3.976562 C 4.351562 -4.007812 4.039062 -4.320312 4.242188 -4.863281 C 4.425781 -5.792969 4.707031 -6.695312 5.050781 -7.707031 C 5.296875 -8.296875 5.5625 -8.296875 5.808594 -7.707031 C 6.152344 -6.695312 6.460938 -5.777344 6.648438 -4.863281 C 6.835938 -4.335938 6.523438 -4.007812 5.777344 -3.976562 C 5.609375 -3.960938 5.265625 -3.960938 5.09375 -3.976562 Z M 5.09375 -3.976562 "/></g></g></g><g fill="#ffffff" fill-opacity="1"><g transform="translate(18.10546, 19.938399)"><g><path d="M 1.554688 0.0625 C 1.707031 0.0625 2.128906 0.046875 2.375 0 C 2.5625 -0.046875 2.734375 -0.1875 2.71875 -0.433594 C 2.65625 -1.679688 2.640625 -2.828125 2.6875 -3.992188 C 2.734375 -5.53125 3.371094 -6.445312 4.195312 -6.445312 C 5.109375 -6.445312 5.71875 -5.578125 5.734375 -4.148438 C 5.75 -3.167969 5.71875 -1.632812 5.65625 -0.433594 C 5.640625 -0.1875 5.824219 -0.046875 6.011719 0 C 6.324219 0.0625 6.789062 0.0625 7.007812 0.0625 C 7.191406 0.0625 7.519531 0.046875 7.769531 0 C 7.984375 -0.046875 8.171875 -0.1875 8.140625 -0.449219 C 8.0625 -1.601562 8.03125 -2.96875 8.03125 -4.023438 C 8.03125 -5.546875 8.714844 -6.445312 9.523438 -6.445312 C 10.441406 -6.445312 11.046875 -5.578125 11.0625 -4.148438 C 11.078125 -3.324219 11.046875 -1.585938 10.96875 -0.433594 C 10.953125 -0.1875 11.140625 -0.046875 11.339844 0 C 11.636719 0.0625 12.101562 0.0625 12.320312 0.0625 C 12.492188 0.0625 12.800781 0.046875 13.066406 0 C 13.265625 -0.046875 13.421875 -0.171875 13.421875 -0.449219 C 13.421875 -2.003906 13.34375 -3.496094 13.296875 -4.644531 C 13.191406 -7.191406 11.898438 -8.574219 10.347656 -8.574219 C 9.289062 -8.574219 8.464844 -8.078125 8.015625 -7.285156 C 7.796875 -6.835938 7.597656 -6.820312 7.394531 -7.300781 C 6.960938 -8.15625 6.152344 -8.574219 5.21875 -8.574219 C 4.351562 -8.574219 3.480469 -8.015625 3.046875 -7.113281 C 2.890625 -6.773438 2.71875 -6.851562 2.71875 -7.207031 C 2.71875 -7.425781 2.796875 -7.707031 2.859375 -8.0625 C 2.890625 -8.28125 2.734375 -8.40625 2.53125 -8.453125 C 2.332031 -8.496094 1.972656 -8.511719 1.707031 -8.511719 C 1.382812 -8.511719 1.132812 -8.496094 0.917969 -8.453125 C 0.714844 -8.421875 0.605469 -8.28125 0.574219 -8.0625 C 0.402344 -5.734375 0.371094 -4.242188 0.371094 -0.449219 C 0.371094 -0.203125 0.527344 -0.046875 0.699219 0 C 0.964844 0.0625 1.382812 0.0625 1.554688 0.0625 Z M 1.554688 0.0625 "/></g></g></g><g fill="#ffffff" fill-opacity="1"><g transform="translate(31.881658, 19.938399)"><g><path d="M 2.90625 0.125 C 4.007812 0.125 5.09375 -0.511719 5.578125 -1.539062 C 5.703125 -1.800781 5.933594 -1.738281 5.902344 -1.445312 C 5.871094 -1.117188 5.808594 -0.746094 5.777344 -0.542969 C 5.734375 -0.28125 5.933594 -0.0625 6.199219 -0.015625 C 6.445312 0.046875 6.898438 0.0625 7.144531 0.0625 C 7.441406 0.0625 7.769531 0.046875 7.984375 -0.015625 C 8.25 -0.0625 8.421875 -0.234375 8.421875 -0.496094 C 8.359375 -1.910156 8.25 -4.148438 8.15625 -5.34375 C 7.953125 -7.597656 6.617188 -8.574219 4.242188 -8.574219 C 3.246094 -8.574219 2.285156 -8.4375 1.445312 -8.171875 C 1.257812 -8.09375 1.164062 -7.921875 1.132812 -7.691406 C 1.085938 -7.378906 0.980469 -6.460938 0.964844 -6.136719 C 0.933594 -5.671875 1.335938 -5.5 1.570312 -5.824219 C 2.316406 -6.476562 3.386719 -6.757812 4.320312 -6.757812 C 5.421875 -6.757812 5.824219 -6.402344 5.824219 -6.074219 C 5.824219 -5.515625 5.1875 -5.328125 3.402344 -5.078125 C 1.460938 -4.753906 0.28125 -3.867188 0.28125 -2.316406 C 0.28125 -0.542969 1.335938 0.125 2.90625 0.125 Z M 3.960938 -1.800781 C 3.03125 -1.800781 2.640625 -2.082031 2.640625 -2.78125 C 2.640625 -3.726562 3.699219 -4.367188 4.800781 -4.367188 C 5.53125 -4.367188 5.792969 -4.007812 5.792969 -3.511719 C 5.792969 -2.421875 4.738281 -1.800781 3.960938 -1.800781 Z M 3.960938 -1.800781 "/></g></g></g><g fill="#ffffff" fill-opacity="1"><g transform="translate(40.656796, 19.938399)"><g><path d="M 4.289062 0.0625 C 5.40625 0.0625 7.394531 0.046875 8.34375 0.03125 C 8.574219 0.015625 8.746094 -0.171875 8.730469 -0.355469 C 8.699219 -1.011719 8.621094 -2.097656 8.542969 -2.734375 C 8.496094 -3.277344 8.046875 -3.214844 7.828125 -2.828125 C 7.285156 -1.878906 6.445312 -1.601562 5.21875 -1.601562 C 4.007812 -1.601562 3.914062 -1.988281 4.535156 -2.484375 L 7.691406 -6.476562 C 8.125 -6.789062 8.296875 -7.144531 8.296875 -7.519531 C 8.28125 -7.707031 8.28125 -7.890625 8.25 -8.109375 C 8.234375 -8.296875 8.0625 -8.453125 7.84375 -8.453125 C 7.394531 -8.464844 5.484375 -8.511719 4.519531 -8.511719 C 3.464844 -8.511719 2.144531 -8.480469 1.273438 -8.453125 C 1.054688 -8.453125 0.886719 -8.265625 0.855469 -8.015625 C 0.808594 -7.457031 0.746094 -6.679688 0.730469 -6.136719 C 0.699219 -5.65625 1.210938 -5.609375 1.460938 -5.949219 C 1.878906 -6.523438 2.5625 -6.789062 3.574219 -6.789062 C 4.582031 -6.789062 4.910156 -6.460938 4.148438 -5.917969 C 3.105469 -4.597656 2.082031 -3.261719 1.039062 -1.941406 C 0.527344 -1.601562 0.355469 -1.289062 0.3125 -0.886719 C 0.296875 -0.699219 0.296875 -0.542969 0.296875 -0.355469 C 0.296875 -0.15625 0.480469 0.015625 0.699219 0.03125 C 1.226562 0.0625 3.386719 0.0625 4.289062 0.0625 Z M 4.289062 0.0625 "/></g></g></g><g fill="#ffffff" fill-opacity="1"><g transform="translate(49.680436, 19.938399)"><g><path d="M 4.628906 0.125 C 7.113281 0.125 8.949219 -1.304688 8.949219 -4.164062 C 8.949219 -6.945312 7.128906 -8.574219 4.628906 -8.574219 C 2.113281 -8.574219 0.28125 -6.945312 0.28125 -4.164062 C 0.28125 -1.304688 2.144531 0.125 4.628906 0.125 Z M 4.628906 -1.707031 C 3.402344 -1.707031 2.515625 -2.609375 2.515625 -4.242188 C 2.515625 -5.792969 3.371094 -6.742188 4.628906 -6.742188 C 5.871094 -6.742188 6.742188 -5.792969 6.742188 -4.242188 C 6.742188 -2.609375 5.839844 -1.707031 4.628906 -1.707031 Z M 4.628906 -1.707031 "/></g></g></g><g fill="#ffffff" fill-opacity="1"><g transform="translate(58.905982, 19.938399)"><g><path d="M 1.632812 0.0625 C 1.878906 0.0625 2.316406 0.046875 2.546875 0 C 2.75 -0.03125 2.9375 -0.1875 2.90625 -0.433594 C 2.765625 -1.601562 2.734375 -2.953125 2.71875 -3.851562 C 2.71875 -5.53125 3.574219 -6.601562 4.785156 -6.601562 C 6.042969 -6.601562 6.835938 -5.546875 6.867188 -3.882812 C 6.882812 -3.058594 6.835938 -1.523438 6.726562 -0.433594 C 6.710938 -0.1875 6.898438 -0.046875 7.101562 0 C 7.394531 0.046875 7.84375 0.0625 8.03125 0.0625 C 8.203125 0.0625 8.589844 0.046875 8.839844 0 C 9.058594 -0.046875 9.210938 -0.171875 9.210938 -0.449219 C 9.210938 -2.269531 9.164062 -3.261719 9.105469 -4.457031 C 8.996094 -7.007812 7.628906 -8.574219 5.75 -8.574219 C 4.660156 -8.574219 3.867188 -8.171875 3.136719 -7.175781 C 2.953125 -6.882812 2.796875 -6.914062 2.8125 -7.269531 C 2.828125 -7.472656 2.875 -7.753906 2.96875 -8.03125 C 3.03125 -8.265625 2.859375 -8.421875 2.65625 -8.453125 C 2.363281 -8.496094 2.066406 -8.511719 1.785156 -8.511719 C 1.523438 -8.511719 1.226562 -8.496094 1.011719 -8.453125 C 0.808594 -8.421875 0.699219 -8.28125 0.667969 -8.046875 C 0.433594 -5.734375 0.402344 -4.210938 0.402344 -0.449219 C 0.386719 -0.1875 0.558594 -0.03125 0.746094 0 C 0.996094 0.046875 1.351562 0.0625 1.632812 0.0625 Z M 1.632812 0.0625 "/></g></g></g><g fill="#ffffff" fill-opacity="1"><g transform="translate(68.473213, 19.938399)"><g><path d="M 2.90625 0.125 C 4.007812 0.125 5.09375 -0.511719 5.578125 -1.539062 C 5.703125 -1.800781 5.933594 -1.738281 5.902344 -1.445312 C 5.871094 -1.117188 5.808594 -0.746094 5.777344 -0.542969 C 5.734375 -0.28125 5.933594 -0.0625 6.199219 -0.015625 C 6.445312 0.046875 6.898438 0.0625 7.144531 0.0625 C 7.441406 0.0625 7.769531 0.046875 7.984375 -0.015625 C 8.25 -0.0625 8.421875 -0.234375 8.421875 -0.496094 C 8.359375 -1.910156 8.25 -4.148438 8.15625 -5.34375 C 7.953125 -7.597656 6.617188 -8.574219 4.242188 -8.574219 C 3.246094 -8.574219 2.285156 -8.4375 1.445312 -8.171875 C 1.257812 -8.09375 1.164062 -7.921875 1.132812 -7.691406 C 1.085938 -7.378906 0.980469 -6.460938 0.964844 -6.136719 C 0.933594 -5.671875 1.335938 -5.5 1.570312 -5.824219 C 2.316406 -6.476562 3.386719 -6.757812 4.320312 -6.757812 C 5.421875 -6.757812 5.824219 -6.402344 5.824219 -6.074219 C 5.824219 -5.515625 5.1875 -5.328125 3.402344 -5.078125 C 1.460938 -4.753906 0.28125 -3.867188 0.28125 -2.316406 C 0.28125 -0.542969 1.335938 0.125 2.90625 0.125 Z M 3.960938 -1.800781 C 3.03125 -1.800781 2.640625 -2.082031 2.640625 -2.78125 C 2.640625 -3.726562 3.699219 -4.367188 4.800781 -4.367188 C 5.53125 -4.367188 5.792969 -4.007812 5.792969 -3.511719 C 5.792969 -2.421875 4.738281 -1.800781 3.960938 -1.800781 Z M 3.960938 -1.800781 "/></g></g></g><g fill="#00bf63" fill-opacity="0.4"><g transform="translate(13.991303, 29.902566)"><g><path d="M 2.515625 0.03125 C 3.136719 0.03125 4.328125 0.03125 4.878906 0 C 4.992188 -0.0078125 5.046875 -0.0703125 5.046875 -0.167969 C 5.03125 -0.472656 4.984375 -1.492188 4.941406 -1.796875 C 4.917969 -2.011719 4.695312 -2.027344 4.609375 -1.84375 C 4.257812 -1.207031 3.855469 -0.941406 2.804688 -0.941406 C 2.058594 -0.941406 1.375 -1.175781 1.375 -1.828125 L 1.375 -2.042969 C 1.375 -2.554688 1.84375 -2.730469 2.378906 -2.730469 C 2.8125 -2.738281 3.347656 -2.675781 3.632812 -2.476562 C 3.769531 -2.355469 3.914062 -2.394531 3.914062 -2.570312 L 3.914062 -3.304688 C 3.914062 -3.417969 3.808594 -3.511719 3.6875 -3.496094 C 3.304688 -3.449219 2.730469 -3.425781 2.316406 -3.425781 C 1.707031 -3.425781 1.382812 -3.625 1.382812 -3.960938 L 1.382812 -4.03125 C 1.382812 -4.496094 1.917969 -4.679688 2.59375 -4.679688 C 3.53125 -4.679688 4.074219 -4.457031 4.359375 -4.007812 C 4.480469 -3.816406 4.6875 -3.863281 4.679688 -4.082031 C 4.671875 -4.328125 4.640625 -5.132812 4.617188 -5.398438 C 4.597656 -5.527344 4.527344 -5.582031 4.40625 -5.589844 C 3.914062 -5.621094 3.121094 -5.621094 2.515625 -5.621094 C 1.972656 -5.621094 0.863281 -5.613281 0.597656 -5.589844 C 0.488281 -5.582031 0.390625 -5.527344 0.382812 -5.40625 C 0.289062 -4.007812 0.230469 -1.796875 0.222656 -0.199219 C 0.222656 -0.078125 0.3125 -0.0078125 0.4375 0 C 0.757812 0.0234375 1.949219 0.03125 2.515625 0.03125 Z M 2.515625 0.03125 "/></g></g></g><g fill="#00bf63" fill-opacity="0.4"><g transform="translate(20.012336, 29.902566)"><g><path d="M 2.945312 0.0546875 C 3.503906 0.0546875 4.457031 -0.0703125 4.902344 -0.273438 C 4.984375 -0.320312 5.054688 -0.414062 5.046875 -0.535156 C 5.03125 -0.964844 5.015625 -1.398438 4.992188 -1.828125 C 4.976562 -2.050781 4.742188 -2.09375 4.65625 -1.902344 C 4.34375 -1.277344 3.722656 -0.972656 2.945312 -0.972656 C 2.101562 -0.972656 1.390625 -1.414062 1.390625 -2.636719 C 1.390625 -3.929688 2.050781 -4.640625 2.890625 -4.640625 C 3.695312 -4.640625 4.136719 -4.28125 4.425781 -3.761719 C 4.503906 -3.59375 4.710938 -3.625 4.726562 -3.792969 C 4.742188 -3.960938 4.800781 -4.832031 4.808594 -4.976562 C 4.816406 -5.085938 4.785156 -5.183594 4.695312 -5.238281 C 4.242188 -5.460938 3.554688 -5.652344 2.90625 -5.652344 C 1.292969 -5.652344 0.160156 -4.472656 0.160156 -2.585938 C 0.160156 -0.71875 1.324219 0.0546875 2.945312 0.0546875 Z M 2.945312 0.0546875 "/></g></g></g><g fill="#00bf63" fill-opacity="0.4"><g transform="translate(26.041361, 29.902566)"><g><path d="M 2.851562 0.0625 C 4.449219 0.0625 5.558594 -0.695312 5.558594 -2.578125 C 5.558594 -4.457031 4.464844 -5.652344 2.851562 -5.652344 C 1.246094 -5.652344 0.152344 -4.457031 0.152344 -2.578125 C 0.152344 -0.695312 1.269531 0.0625 2.851562 0.0625 Z M 2.859375 -0.988281 C 2.042969 -0.988281 1.414062 -1.429688 1.414062 -2.644531 C 1.414062 -3.824219 2.011719 -4.597656 2.859375 -4.597656 C 3.695312 -4.597656 4.304688 -3.824219 4.304688 -2.644531 C 4.304688 -1.429688 3.671875 -0.988281 2.859375 -0.988281 Z M 2.859375 -0.988281 "/></g></g></g><g fill="#00bf63" fill-opacity="0.4"><g transform="translate(32.54951, 29.902566)"><g><path d="M 0.894531 0.03125 C 0.988281 0.03125 1.238281 0.0234375 1.375 0 C 1.492188 -0.0234375 1.597656 -0.105469 1.589844 -0.230469 C 1.523438 -0.804688 1.515625 -1.765625 1.550781 -2.300781 C 1.582031 -3.019531 1.613281 -3.433594 1.75 -3.433594 C 1.917969 -3.433594 2.050781 -2.921875 2.203125 -2.402344 C 2.339844 -2.027344 2.539062 -1.582031 2.714844 -1.191406 C 2.890625 -0.863281 3.050781 -0.6875 3.355469 -0.6875 C 3.632812 -0.6875 3.808594 -0.855469 3.984375 -1.191406 C 4.152344 -1.589844 4.351562 -2.042969 4.496094 -2.410156 C 4.648438 -2.914062 4.765625 -3.425781 4.925781 -3.425781 C 5.070312 -3.425781 5.101562 -3.019531 5.132812 -2.300781 C 5.167969 -1.765625 5.160156 -0.804688 5.09375 -0.230469 C 5.085938 -0.105469 5.191406 -0.0234375 5.308594 0 C 5.445312 0.0234375 5.71875 0.03125 5.804688 0.03125 C 5.917969 0.03125 6.140625 0.0234375 6.308594 0 C 6.421875 -0.0234375 6.5 -0.105469 6.492188 -0.230469 C 6.453125 -2.085938 6.253906 -4.183594 6.09375 -5.382812 C 6.078125 -5.492188 6.003906 -5.566406 5.886719 -5.589844 C 5.75 -5.613281 5.453125 -5.621094 5.335938 -5.621094 C 5.183594 -5.621094 4.957031 -5.605469 4.816406 -5.589844 C 4.617188 -5.566406 4.480469 -5.542969 4.40625 -5.351562 C 4.273438 -5 4.082031 -4.28125 3.9375 -3.792969 C 3.730469 -3.171875 3.539062 -2.601562 3.347656 -2.601562 C 3.171875 -2.601562 2.953125 -3.164062 2.753906 -3.777344 C 2.601562 -4.28125 2.410156 -5 2.277344 -5.34375 C 2.195312 -5.542969 2.066406 -5.558594 1.867188 -5.589844 C 1.726562 -5.605469 1.460938 -5.621094 1.316406 -5.621094 C 1.191406 -5.621094 0.933594 -5.605469 0.796875 -5.589844 C 0.679688 -5.574219 0.605469 -5.492188 0.589844 -5.382812 C 0.4375 -4.199219 0.230469 -2.085938 0.191406 -0.230469 C 0.183594 -0.105469 0.261719 -0.0234375 0.375 0 C 0.542969 0.0234375 0.78125 0.03125 0.894531 0.03125 Z M 0.894531 0.03125 "/></g></g></g><g fill="#00bf63" fill-opacity="0.4"><g transform="translate(40.031883, 29.902566)"><g><path d="M 0.894531 0.03125 C 0.988281 0.03125 1.238281 0.0234375 1.375 0 C 1.492188 -0.0234375 1.597656 -0.105469 1.589844 -0.230469 C 1.523438 -0.804688 1.515625 -1.765625 1.550781 -2.300781 C 1.582031 -3.019531 1.613281 -3.433594 1.75 -3.433594 C 1.917969 -3.433594 2.050781 -2.921875 2.203125 -2.402344 C 2.339844 -2.027344 2.539062 -1.582031 2.714844 -1.191406 C 2.890625 -0.863281 3.050781 -0.6875 3.355469 -0.6875 C 3.632812 -0.6875 3.808594 -0.855469 3.984375 -1.191406 C 4.152344 -1.589844 4.351562 -2.042969 4.496094 -2.410156 C 4.648438 -2.914062 4.765625 -3.425781 4.925781 -3.425781 C 5.070312 -3.425781 5.101562 -3.019531 5.132812 -2.300781 C 5.167969 -1.765625 5.160156 -0.804688 5.09375 -0.230469 C 5.085938 -0.105469 5.191406 -0.0234375 5.308594 0 C 5.445312 0.0234375 5.71875 0.03125 5.804688 0.03125 C 5.917969 0.03125 6.140625 0.0234375 6.308594 0 C 6.421875 -0.0234375 6.5 -0.105469 6.492188 -0.230469 C 6.453125 -2.085938 6.253906 -4.183594 6.09375 -5.382812 C 6.078125 -5.492188 6.003906 -5.566406 5.886719 -5.589844 C 5.75 -5.613281 5.453125 -5.621094 5.335938 -5.621094 C 5.183594 -5.621094 4.957031 -5.605469 4.816406 -5.589844 C 4.617188 -5.566406 4.480469 -5.542969 4.40625 -5.351562 C 4.273438 -5 4.082031 -4.28125 3.9375 -3.792969 C 3.730469 -3.171875 3.539062 -2.601562 3.347656 -2.601562 C 3.171875 -2.601562 2.953125 -3.164062 2.753906 -3.777344 C 2.601562 -4.28125 2.410156 -5 2.277344 -5.34375 C 2.195312 -5.542969 2.066406 -5.558594 1.867188 -5.589844 C 1.726562 -5.605469 1.460938 -5.621094 1.316406 -5.621094 C 1.191406 -5.621094 0.933594 -5.605469 0.796875 -5.589844 C 0.679688 -5.574219 0.605469 -5.492188 0.589844 -5.382812 C 0.4375 -4.199219 0.230469 -2.085938 0.191406 -0.230469 C 0.183594 -0.105469 0.261719 -0.0234375 0.375 0 C 0.542969 0.0234375 0.78125 0.03125 0.894531 0.03125 Z M 0.894531 0.03125 "/></g></g></g><g fill="#00bf63" fill-opacity="0.4"><g transform="translate(47.514256, 29.902566)"><g><path d="M 2.515625 0.03125 C 3.136719 0.03125 4.328125 0.03125 4.878906 0 C 4.992188 -0.0078125 5.046875 -0.0703125 5.046875 -0.167969 C 5.03125 -0.472656 4.984375 -1.492188 4.941406 -1.796875 C 4.917969 -2.011719 4.695312 -2.027344 4.609375 -1.84375 C 4.257812 -1.207031 3.855469 -0.941406 2.804688 -0.941406 C 2.058594 -0.941406 1.375 -1.175781 1.375 -1.828125 L 1.375 -2.042969 C 1.375 -2.554688 1.84375 -2.730469 2.378906 -2.730469 C 2.8125 -2.738281 3.347656 -2.675781 3.632812 -2.476562 C 3.769531 -2.355469 3.914062 -2.394531 3.914062 -2.570312 L 3.914062 -3.304688 C 3.914062 -3.417969 3.808594 -3.511719 3.6875 -3.496094 C 3.304688 -3.449219 2.730469 -3.425781 2.316406 -3.425781 C 1.707031 -3.425781 1.382812 -3.625 1.382812 -3.960938 L 1.382812 -4.03125 C 1.382812 -4.496094 1.917969 -4.679688 2.59375 -4.679688 C 3.53125 -4.679688 4.074219 -4.457031 4.359375 -4.007812 C 4.480469 -3.816406 4.6875 -3.863281 4.679688 -4.082031 C 4.671875 -4.328125 4.640625 -5.132812 4.617188 -5.398438 C 4.597656 -5.527344 4.527344 -5.582031 4.40625 -5.589844 C 3.914062 -5.621094 3.121094 -5.621094 2.515625 -5.621094 C 1.972656 -5.621094 0.863281 -5.613281 0.597656 -5.589844 C 0.488281 -5.582031 0.390625 -5.527344 0.382812 -5.40625 C 0.289062 -4.007812 0.230469 -1.796875 0.222656 -0.199219 C 0.222656 -0.078125 0.3125 -0.0078125 0.4375 0 C 0.757812 0.0234375 1.949219 0.03125 2.515625 0.03125 Z M 2.515625 0.03125 "/></g></g></g><g fill="#00bf63" fill-opacity="0.4"><g transform="translate(53.53529, 29.902566)"><g><path d="M 0.964844 0.03125 C 1.148438 0.03125 1.324219 0.0234375 1.484375 0 C 1.605469 -0.0234375 1.707031 -0.105469 1.683594 -0.222656 C 1.636719 -0.671875 1.507812 -1.316406 1.507812 -1.933594 C 1.507812 -2.1875 1.660156 -2.355469 1.890625 -2.355469 C 2.792969 -2.355469 3.5625 -1.339844 3.578125 -0.214844 C 3.578125 -0.0859375 3.671875 -0.0234375 3.792969 0 C 3.960938 0.0234375 4.207031 0.03125 4.335938 0.03125 C 4.441406 0.03125 4.640625 0.0234375 4.808594 0 C 4.925781 -0.0234375 5.015625 -0.0859375 5.015625 -0.214844 C 5.015625 -1.53125 4.542969 -2.316406 3.410156 -2.59375 C 3.273438 -2.636719 3.273438 -2.753906 3.417969 -2.777344 C 4.425781 -2.996094 4.949219 -3.648438 4.949219 -4.328125 C 4.949219 -5.246094 4.082031 -5.652344 2.507812 -5.652344 C 1.972656 -5.652344 0.71875 -5.628906 0.566406 -5.613281 C 0.464844 -5.605469 0.375 -5.527344 0.375 -5.421875 C 0.34375 -4.425781 0.222656 -1.398438 0.222656 -0.207031 C 0.222656 -0.0976562 0.304688 -0.0234375 0.421875 0 C 0.511719 0.0234375 0.734375 0.03125 0.964844 0.03125 Z M 1.902344 -3.21875 C 1.667969 -3.171875 1.507812 -3.234375 1.484375 -3.472656 C 1.453125 -3.746094 1.46875 -4.128906 1.484375 -4.359375 C 1.5 -4.519531 1.605469 -4.632812 1.796875 -4.648438 C 1.996094 -4.664062 2.179688 -4.664062 2.4375 -4.664062 C 3.328125 -4.664062 3.746094 -4.488281 3.746094 -4.082031 C 3.746094 -3.640625 3.082031 -3.328125 1.902344 -3.21875 Z M 1.902344 -3.21875 "/></g></g></g><g fill="#00bf63" fill-opacity="0.4"><g transform="translate(59.556324, 29.902566)"><g><path d="M 2.945312 0.0546875 C 3.503906 0.0546875 4.457031 -0.0703125 4.902344 -0.273438 C 4.984375 -0.320312 5.054688 -0.414062 5.046875 -0.535156 C 5.03125 -0.964844 5.015625 -1.398438 4.992188 -1.828125 C 4.976562 -2.050781 4.742188 -2.09375 4.65625 -1.902344 C 4.34375 -1.277344 3.722656 -0.972656 2.945312 -0.972656 C 2.101562 -0.972656 1.390625 -1.414062 1.390625 -2.636719 C 1.390625 -3.929688 2.050781 -4.640625 2.890625 -4.640625 C 3.695312 -4.640625 4.136719 -4.28125 4.425781 -3.761719 C 4.503906 -3.59375 4.710938 -3.625 4.726562 -3.792969 C 4.742188 -3.960938 4.800781 -4.832031 4.808594 -4.976562 C 4.816406 -5.085938 4.785156 -5.183594 4.695312 -5.238281 C 4.242188 -5.460938 3.554688 -5.652344 2.90625 -5.652344 C 1.292969 -5.652344 0.160156 -4.472656 0.160156 -2.585938 C 0.160156 -0.71875 1.324219 0.0546875 2.945312 0.0546875 Z M 2.945312 0.0546875 "/></g></g></g><g fill="#00bf63" fill-opacity="0.4"><g transform="translate(65.585346, 29.902566)"><g><path d="M 2.515625 0.03125 C 3.136719 0.03125 4.328125 0.03125 4.878906 0 C 4.992188 -0.0078125 5.046875 -0.0703125 5.046875 -0.167969 C 5.03125 -0.472656 4.984375 -1.492188 4.941406 -1.796875 C 4.917969 -2.011719 4.695312 -2.027344 4.609375 -1.84375 C 4.257812 -1.207031 3.855469 -0.941406 2.804688 -0.941406 C 2.058594 -0.941406 1.375 -1.175781 1.375 -1.828125 L 1.375 -2.042969 C 1.375 -2.554688 1.84375 -2.730469 2.378906 -2.730469 C 2.8125 -2.738281 3.347656 -2.675781 3.632812 -2.476562 C 3.769531 -2.355469 3.914062 -2.394531 3.914062 -2.570312 L 3.914062 -3.304688 C 3.914062 -3.417969 3.808594 -3.511719 3.6875 -3.496094 C 3.304688 -3.449219 2.730469 -3.425781 2.316406 -3.425781 C 1.707031 -3.425781 1.382812 -3.625 1.382812 -3.960938 L 1.382812 -4.03125 C 1.382812 -4.496094 1.917969 -4.679688 2.59375 -4.679688 C 3.53125 -4.679688 4.074219 -4.457031 4.359375 -4.007812 C 4.480469 -3.816406 4.6875 -3.863281 4.679688 -4.082031 C 4.671875 -4.328125 4.640625 -5.132812 4.617188 -5.398438 C 4.597656 -5.527344 4.527344 -5.582031 4.40625 -5.589844 C 3.914062 -5.621094 3.121094 -5.621094 2.515625 -5.621094 C 1.972656 -5.621094 0.863281 -5.613281 0.597656 -5.589844 C 0.488281 -5.582031 0.390625 -5.527344 0.382812 -5.40625 C 0.289062 -4.007812 0.230469 -1.796875 0.222656 -0.199219 C 0.222656 -0.078125 0.3125 -0.0078125 0.4375 0 C 0.757812 0.0234375 1.949219 0.03125 2.515625 0.03125 Z M 2.515625 0.03125 "/></g></g></g><g fill="#00bf63" fill-opacity="1"><g transform="translate(13.828966, 29.740228)"><g><path d="M 2.515625 0.03125 C 3.136719 0.03125 4.328125 0.03125 4.878906 0 C 4.992188 -0.0078125 5.046875 -0.0703125 5.046875 -0.167969 C 5.03125 -0.472656 4.984375 -1.492188 4.941406 -1.796875 C 4.917969 -2.011719 4.695312 -2.027344 4.609375 -1.84375 C 4.257812 -1.207031 3.855469 -0.941406 2.804688 -0.941406 C 2.058594 -0.941406 1.375 -1.175781 1.375 -1.828125 L 1.375 -2.042969 C 1.375 -2.554688 1.84375 -2.730469 2.378906 -2.730469 C 2.8125 -2.738281 3.347656 -2.675781 3.632812 -2.476562 C 3.769531 -2.355469 3.914062 -2.394531 3.914062 -2.570312 L 3.914062 -3.304688 C 3.914062 -3.417969 3.808594 -3.511719 3.6875 -3.496094 C 3.304688 -3.449219 2.730469 -3.425781 2.316406 -3.425781 C 1.707031 -3.425781 1.382812 -3.625 1.382812 -3.960938 L 1.382812 -4.03125 C 1.382812 -4.496094 1.917969 -4.679688 2.59375 -4.679688 C 3.53125 -4.679688 4.074219 -4.457031 4.359375 -4.007812 C 4.480469 -3.816406 4.6875 -3.863281 4.679688 -4.082031 C 4.671875 -4.328125 4.640625 -5.132812 4.617188 -5.398438 C 4.597656 -5.527344 4.527344 -5.582031 4.40625 -5.589844 C 3.914062 -5.621094 3.121094 -5.621094 2.515625 -5.621094 C 1.972656 -5.621094 0.863281 -5.613281 0.597656 -5.589844 C 0.488281 -5.582031 0.390625 -5.527344 0.382812 -5.40625 C 0.289062 -4.007812 0.230469 -1.796875 0.222656 -0.199219 C 0.222656 -0.078125 0.3125 -0.0078125 0.4375 0 C 0.757812 0.0234375 1.949219 0.03125 2.515625 0.03125 Z M 2.515625 0.03125 "/></g></g></g><g fill="#00bf63" fill-opacity="1"><g transform="translate(19.849999, 29.740228)"><g><path d="M 2.945312 0.0546875 C 3.503906 0.0546875 4.457031 -0.0703125 4.902344 -0.273438 C 4.984375 -0.320312 5.054688 -0.414062 5.046875 -0.535156 C 5.03125 -0.964844 5.015625 -1.398438 4.992188 -1.828125 C 4.976562 -2.050781 4.742188 -2.09375 4.65625 -1.902344 C 4.34375 -1.277344 3.722656 -0.972656 2.945312 -0.972656 C 2.101562 -0.972656 1.390625 -1.414062 1.390625 -2.636719 C 1.390625 -3.929688 2.050781 -4.640625 2.890625 -4.640625 C 3.695312 -4.640625 4.136719 -4.28125 4.425781 -3.761719 C 4.503906 -3.59375 4.710938 -3.625 4.726562 -3.792969 C 4.742188 -3.960938 4.800781 -4.832031 4.808594 -4.976562 C 4.816406 -5.085938 4.785156 -5.183594 4.695312 -5.238281 C 4.242188 -5.460938 3.554688 -5.652344 2.90625 -5.652344 C 1.292969 -5.652344 0.160156 -4.472656 0.160156 -2.585938 C 0.160156 -0.71875 1.324219 0.0546875 2.945312 0.0546875 Z M 2.945312 0.0546875 "/></g></g></g><g fill="#00bf63" fill-opacity="1"><g transform="translate(25.879023, 29.740228)"><g><path d="M 2.851562 0.0625 C 4.449219 0.0625 5.558594 -0.695312 5.558594 -2.578125 C 5.558594 -4.457031 4.464844 -5.652344 2.851562 -5.652344 C 1.246094 -5.652344 0.152344 -4.457031 0.152344 -2.578125 C 0.152344 -0.695312 1.269531 0.0625 2.851562 0.0625 Z M 2.859375 -0.988281 C 2.042969 -0.988281 1.414062 -1.429688 1.414062 -2.644531 C 1.414062 -3.824219 2.011719 -4.597656 2.859375 -4.597656 C 3.695312 -4.597656 4.304688 -3.824219 4.304688 -2.644531 C 4.304688 -1.429688 3.671875 -0.988281 2.859375 -0.988281 Z M 2.859375 -0.988281 "/></g></g></g><g fill="#00bf63" fill-opacity="1"><g transform="translate(32.387172, 29.740228)"><g><path d="M 0.894531 0.03125 C 0.988281 0.03125 1.238281 0.0234375 1.375 0 C 1.492188 -0.0234375 1.597656 -0.105469 1.589844 -0.230469 C 1.523438 -0.804688 1.515625 -1.765625 1.550781 -2.300781 C 1.582031 -3.019531 1.613281 -3.433594 1.75 -3.433594 C 1.917969 -3.433594 2.050781 -2.921875 2.203125 -2.402344 C 2.339844 -2.027344 2.539062 -1.582031 2.714844 -1.191406 C 2.890625 -0.863281 3.050781 -0.6875 3.355469 -0.6875 C 3.632812 -0.6875 3.808594 -0.855469 3.984375 -1.191406 C 4.152344 -1.589844 4.351562 -2.042969 4.496094 -2.410156 C 4.648438 -2.914062 4.765625 -3.425781 4.925781 -3.425781 C 5.070312 -3.425781 5.101562 -3.019531 5.132812 -2.300781 C 5.167969 -1.765625 5.160156 -0.804688 5.09375 -0.230469 C 5.085938 -0.105469 5.191406 -0.0234375 5.308594 0 C 5.445312 0.0234375 5.71875 0.03125 5.804688 0.03125 C 5.917969 0.03125 6.140625 0.0234375 6.308594 0 C 6.421875 -0.0234375 6.5 -0.105469 6.492188 -0.230469 C 6.453125 -2.085938 6.253906 -4.183594 6.09375 -5.382812 C 6.078125 -5.492188 6.003906 -5.566406 5.886719 -5.589844 C 5.75 -5.613281 5.453125 -5.621094 5.335938 -5.621094 C 5.183594 -5.621094 4.957031 -5.605469 4.816406 -5.589844 C 4.617188 -5.566406 4.480469 -5.542969 4.40625 -5.351562 C 4.273438 -5 4.082031 -4.28125 3.9375 -3.792969 C 3.730469 -3.171875 3.539062 -2.601562 3.347656 -2.601562 C 3.171875 -2.601562 2.953125 -3.164062 2.753906 -3.777344 C 2.601562 -4.28125 2.410156 -5 2.277344 -5.34375 C 2.195312 -5.542969 2.066406 -5.558594 1.867188 -5.589844 C 1.726562 -5.605469 1.460938 -5.621094 1.316406 -5.621094 C 1.191406 -5.621094 0.933594 -5.605469 0.796875 -5.589844 C 0.679688 -5.574219 0.605469 -5.492188 0.589844 -5.382812 C 0.4375 -4.199219 0.230469 -2.085938 0.191406 -0.230469 C 0.183594 -0.105469 0.261719 -0.0234375 0.375 0 C 0.542969 0.0234375 0.78125 0.03125 0.894531 0.03125 Z M 0.894531 0.03125 "/></g></g></g><g fill="#00bf63" fill-opacity="1"><g transform="translate(39.869545, 29.740228)"><g><path d="M 0.894531 0.03125 C 0.988281 0.03125 1.238281 0.0234375 1.375 0 C 1.492188 -0.0234375 1.597656 -0.105469 1.589844 -0.230469 C 1.523438 -0.804688 1.515625 -1.765625 1.550781 -2.300781 C 1.582031 -3.019531 1.613281 -3.433594 1.75 -3.433594 C 1.917969 -3.433594 2.050781 -2.921875 2.203125 -2.402344 C 2.339844 -2.027344 2.539062 -1.582031 2.714844 -1.191406 C 2.890625 -0.863281 3.050781 -0.6875 3.355469 -0.6875 C 3.632812 -0.6875 3.808594 -0.855469 3.984375 -1.191406 C 4.152344 -1.589844 4.351562 -2.042969 4.496094 -2.410156 C 4.648438 -2.914062 4.765625 -3.425781 4.925781 -3.425781 C 5.070312 -3.425781 5.101562 -3.019531 5.132812 -2.300781 C 5.167969 -1.765625 5.160156 -0.804688 5.09375 -0.230469 C 5.085938 -0.105469 5.191406 -0.0234375 5.308594 0 C 5.445312 0.0234375 5.71875 0.03125 5.804688 0.03125 C 5.917969 0.03125 6.140625 0.0234375 6.308594 0 C 6.421875 -0.0234375 6.5 -0.105469 6.492188 -0.230469 C 6.453125 -2.085938 6.253906 -4.183594 6.09375 -5.382812 C 6.078125 -5.492188 6.003906 -5.566406 5.886719 -5.589844 C 5.75 -5.613281 5.453125 -5.621094 5.335938 -5.621094 C 5.183594 -5.621094 4.957031 -5.605469 4.816406 -5.589844 C 4.617188 -5.566406 4.480469 -5.542969 4.40625 -5.351562 C 4.273438 -5 4.082031 -4.28125 3.9375 -3.792969 C 3.730469 -3.171875 3.539062 -2.601562 3.347656 -2.601562 C 3.171875 -2.601562 2.953125 -3.164062 2.753906 -3.777344 C 2.601562 -4.28125 2.410156 -5 2.277344 -5.34375 C 2.195312 -5.542969 2.066406 -5.558594 1.867188 -5.589844 C 1.726562 -5.605469 1.460938 -5.621094 1.316406 -5.621094 C 1.191406 -5.621094 0.933594 -5.605469 0.796875 -5.589844 C 0.679688 -5.574219 0.605469 -5.492188 0.589844 -5.382812 C 0.4375 -4.199219 0.230469 -2.085938 0.191406 -0.230469 C 0.183594 -0.105469 0.261719 -0.0234375 0.375 0 C 0.542969 0.0234375 0.78125 0.03125 0.894531 0.03125 Z M 0.894531 0.03125 "/></g></g></g><g fill="#00bf63" fill-opacity="1"><g transform="translate(47.351918, 29.740228)"><g><path d="M 2.515625 0.03125 C 3.136719 0.03125 4.328125 0.03125 4.878906 0 C 4.992188 -0.0078125 5.046875 -0.0703125 5.046875 -0.167969 C 5.03125 -0.472656 4.984375 -1.492188 4.941406 -1.796875 C 4.917969 -2.011719 4.695312 -2.027344 4.609375 -1.84375 C 4.257812 -1.207031 3.855469 -0.941406 2.804688 -0.941406 C 2.058594 -0.941406 1.375 -1.175781 1.375 -1.828125 L 1.375 -2.042969 C 1.375 -2.554688 1.84375 -2.730469 2.378906 -2.730469 C 2.8125 -2.738281 3.347656 -2.675781 3.632812 -2.476562 C 3.769531 -2.355469 3.914062 -2.394531 3.914062 -2.570312 L 3.914062 -3.304688 C 3.914062 -3.417969 3.808594 -3.511719 3.6875 -3.496094 C 3.304688 -3.449219 2.730469 -3.425781 2.316406 -3.425781 C 1.707031 -3.425781 1.382812 -3.625 1.382812 -3.960938 L 1.382812 -4.03125 C 1.382812 -4.496094 1.917969 -4.679688 2.59375 -4.679688 C 3.53125 -4.679688 4.074219 -4.457031 4.359375 -4.007812 C 4.480469 -3.816406 4.6875 -3.863281 4.679688 -4.082031 C 4.671875 -4.328125 4.640625 -5.132812 4.617188 -5.398438 C 4.597656 -5.527344 4.527344 -5.582031 4.40625 -5.589844 C 3.914062 -5.621094 3.121094 -5.621094 2.515625 -5.621094 C 1.972656 -5.621094 0.863281 -5.613281 0.597656 -5.589844 C 0.488281 -5.582031 0.390625 -5.527344 0.382812 -5.40625 C 0.289062 -4.007812 0.230469 -1.796875 0.222656 -0.199219 C 0.222656 -0.078125 0.3125 -0.0078125 0.4375 0 C 0.757812 0.0234375 1.949219 0.03125 2.515625 0.03125 Z M 2.515625 0.03125 "/></g></g></g><g fill="#00bf63" fill-opacity="1"><g transform="translate(53.372952, 29.740228)"><g><path d="M 0.964844 0.03125 C 1.148438 0.03125 1.324219 0.0234375 1.484375 0 C 1.605469 -0.0234375 1.707031 -0.105469 1.683594 -0.222656 C 1.636719 -0.671875 1.507812 -1.316406 1.507812 -1.933594 C 1.507812 -2.1875 1.660156 -2.355469 1.890625 -2.355469 C 2.792969 -2.355469 3.5625 -1.339844 3.578125 -0.214844 C 3.578125 -0.0859375 3.671875 -0.0234375 3.792969 0 C 3.960938 0.0234375 4.207031 0.03125 4.335938 0.03125 C 4.441406 0.03125 4.640625 0.0234375 4.808594 0 C 4.925781 -0.0234375 5.015625 -0.0859375 5.015625 -0.214844 C 5.015625 -1.53125 4.542969 -2.316406 3.410156 -2.59375 C 3.273438 -2.636719 3.273438 -2.753906 3.417969 -2.777344 C 4.425781 -2.996094 4.949219 -3.648438 4.949219 -4.328125 C 4.949219 -5.246094 4.082031 -5.652344 2.507812 -5.652344 C 1.972656 -5.652344 0.71875 -5.628906 0.566406 -5.613281 C 0.464844 -5.605469 0.375 -5.527344 0.375 -5.421875 C 0.34375 -4.425781 0.222656 -1.398438 0.222656 -0.207031 C 0.222656 -0.0976562 0.304688 -0.0234375 0.421875 0 C 0.511719 0.0234375 0.734375 0.03125 0.964844 0.03125 Z M 1.902344 -3.21875 C 1.667969 -3.171875 1.507812 -3.234375 1.484375 -3.472656 C 1.453125 -3.746094 1.46875 -4.128906 1.484375 -4.359375 C 1.5 -4.519531 1.605469 -4.632812 1.796875 -4.648438 C 1.996094 -4.664062 2.179688 -4.664062 2.4375 -4.664062 C 3.328125 -4.664062 3.746094 -4.488281 3.746094 -4.082031 C 3.746094 -3.640625 3.082031 -3.328125 1.902344 -3.21875 Z M 1.902344 -3.21875 "/></g></g></g><g fill="#00bf63" fill-opacity="1"><g transform="translate(59.393986, 29.740228)"><g><path d="M 2.945312 0.0546875 C 3.503906 0.0546875 4.457031 -0.0703125 4.902344 -0.273438 C 4.984375 -0.320312 5.054688 -0.414062 5.046875 -0.535156 C 5.03125 -0.964844 5.015625 -1.398438 4.992188 -1.828125 C 4.976562 -2.050781 4.742188 -2.09375 4.65625 -1.902344 C 4.34375 -1.277344 3.722656 -0.972656 2.945312 -0.972656 C 2.101562 -0.972656 1.390625 -1.414062 1.390625 -2.636719 C 1.390625 -3.929688 2.050781 -4.640625 2.890625 -4.640625 C 3.695312 -4.640625 4.136719 -4.28125 4.425781 -3.761719 C 4.503906 -3.59375 4.710938 -3.625 4.726562 -3.792969 C 4.742188 -3.960938 4.800781 -4.832031 4.808594 -4.976562 C 4.816406 -5.085938 4.785156 -5.183594 4.695312 -5.238281 C 4.242188 -5.460938 3.554688 -5.652344 2.90625 -5.652344 C 1.292969 -5.652344 0.160156 -4.472656 0.160156 -2.585938 C 0.160156 -0.71875 1.324219 0.0546875 2.945312 0.0546875 Z M 2.945312 0.0546875 "/></g></g></g><g fill="#00bf63" fill-opacity="1"><g transform="translate(65.423008, 29.740228)"><g><path d="M 2.515625 0.03125 C 3.136719 0.03125 4.328125 0.03125 4.878906 0 C 4.992188 -0.0078125 5.046875 -0.0703125 5.046875 -0.167969 C 5.03125 -0.472656 4.984375 -1.492188 4.941406 -1.796875 C 4.917969 -2.011719 4.695312 -2.027344 4.609375 -1.84375 C 4.257812 -1.207031 3.855469 -0.941406 2.804688 -0.941406 C 2.058594 -0.941406 1.375 -1.175781 1.375 -1.828125 L 1.375 -2.042969 C 1.375 -2.554688 1.84375 -2.730469 2.378906 -2.730469 C 2.8125 -2.738281 3.347656 -2.675781 3.632812 -2.476562 C 3.769531 -2.355469 3.914062 -2.394531 3.914062 -2.570312 L 3.914062 -3.304688 C 3.914062 -3.417969 3.808594 -3.511719 3.6875 -3.496094 C 3.304688 -3.449219 2.730469 -3.425781 2.316406 -3.425781 C 1.707031 -3.425781 1.382812 -3.625 1.382812 -3.960938 L 1.382812 -4.03125 C 1.382812 -4.496094 1.917969 -4.679688 2.59375 -4.679688 C 3.53125 -4.679688 4.074219 -4.457031 4.359375 -4.007812 C 4.480469 -3.816406 4.6875 -3.863281 4.679688 -4.082031 C 4.671875 -4.328125 4.640625 -5.132812 4.617188 -5.398438 C 4.597656 -5.527344 4.527344 -5.582031 4.40625 -5.589844 C 3.914062 -5.621094 3.121094 -5.621094 2.515625 -5.621094 C 1.972656 -5.621094 0.863281 -5.613281 0.597656 -5.589844 C 0.488281 -5.582031 0.390625 -5.527344 0.382812 -5.40625 C 0.289062 -4.007812 0.230469 -1.796875 0.222656 -0.199219 C 0.222656 -0.078125 0.3125 -0.0078125 0.4375 0 C 0.757812 0.0234375 1.949219 0.03125 2.515625 0.03125 Z M 2.515625 0.03125 "/></g></g></g></svg>